<svg xmlns="http://www.w3.org/2000/svg" viewBox="0 0 232 77.34" fill="#FFFFFF" role="img" aria-label="AZ Elevated Builders"><path d="M14.05 26.9L52.74 26.9L54.35 30.14L16.52 30.14ZM62.24 26.9L78.11 26.9L73.96 30.14L63.91 30.14ZM24.35 63.47L71.61 63.47L73.42 67.1L19.37 67.1ZM74.02 63.47L93.44 63.47L96 67.1L75.83 67.1ZM67.34 30.14L74.18 30.14L31.75 63.47L24.59 63.47Z"/><path d="M46.66 0L0 77.34L5.74 77.34L46.55 8.38ZM46.66 0L46.55 8.38L59.33 34.01L62.76 31.34ZM62.98 41.33L80.94 77.34L86.4 77.34L66.48 38.58Z"/><g transform="translate(110 -48.67) scale(0.92)"><path d="M2.96375 97.704H0.0018359374999999956L4.5194140625 84.608296875H8.0877734375L12.5965625 97.704H9.6434375L6.356328125 87.596578125H6.250859375ZM2.78796875 92.553609375H9.7928515625V94.71571875H2.78796875Z M14.8143828125 97.704V96.069234375L21.3534453125 86.893453125H14.7968046875V84.608296875H24.8163359375V86.2518515625L18.2772734375 95.41884375H24.8339140625V97.704Z M32.714867187500005 97.704V84.608296875H41.539085937500005V86.893453125H35.474632812500005V89.969625H41.082054687500005V92.2108359375H35.474632812500005V95.41884375H41.556664062500005V97.704Z M44.53034375000001 97.704V84.608296875H47.29010937500001V95.41884375H52.90632031250001V97.704Z M55.54601562500001 97.704V84.608296875H64.37023437500001V86.893453125H58.30578125000001V89.969625H63.91320312500001V92.2108359375H58.30578125000001V95.41884375H64.38781250000001V97.704Z M69.7345390625 84.608296875 72.8898125 94.557515625H73.012859375L76.1857109375 84.608296875H79.2443046875L74.735515625 97.704H71.16715625L66.649578125 84.608296875Z M83.85275 97.704H80.8908359375L85.4084140625 84.608296875H88.9767734375L93.4855625 97.704H90.5324375L87.245328125 87.596578125H87.139859375ZM83.67696875 92.553609375H90.6818515625V94.71571875H83.67696875Z M95.34303125 86.893453125V84.608296875H106.10084375V86.893453125H102.09303125V97.704H99.3596328125V86.893453125Z M108.67022656249999 97.704V84.608296875H117.49444531249999V86.893453125H111.42999218749999V89.969625H117.03741406249999V92.2108359375H111.42999218749999V95.41884375H117.51202343749999V97.704Z M125.12632812499999 97.704H121.71617187499999V95.330953125H125.00328124999999Q126.24253906249999 95.330953125 127.08189453124999 94.89589453125Q127.92124999999999 94.4608359375 128.34751953125 93.53358984375Q128.7737890625 92.60634375 128.7737890625 91.147359375Q128.7737890625 89.6971640625 128.34751953125 88.7743125Q127.92124999999999 87.8514609375 127.08189453124999 87.41640234375Q126.24253906249999 86.98134375 125.01207031249999 86.98134375H121.66343749999999V84.608296875H125.17027343749999Q127.14781249999999 84.608296875 128.571640625 85.39491796875Q129.99546875 86.1815390625 130.7601171875 87.64491796875Q131.524765625 89.108296875 131.524765625 91.147359375Q131.524765625 93.1952109375 130.75572265625 94.662984375Q129.9866796875 96.1307578125 128.5540625 96.91737890625Q127.12144531249999 97.704 125.12632812499999 97.704ZM123.24546874999999 84.608296875V97.704H120.48570312499999V84.608296875Z"/><path d="M25.202929687500003 107.948V102.11313671875H27.442890625Q28.073369140625 102.11313671875 28.4923828125 102.31089550781249Q28.911396484375 102.508654296875 29.118945312500003 102.8513056640625Q29.326494140625 103.19395703125 29.326494140625 103.62471875Q29.326494140625 103.98107617187499 29.1913916015625 104.23365917968749Q29.0562890625 104.4862421875 28.825244140625 104.6428828125Q28.59419921875 104.7995234375 28.308330078125 104.87001171874999V104.92875195312499Q28.621611328125002 104.9405 28.9055224609375 105.11476269531249Q29.18943359375 105.289025390625 29.3715283203125 105.60230664062499Q29.553623046875 105.91558789062499 29.553623046875 106.35809765625Q29.553623046875 106.81235546875 29.336284179687503 107.17067089843749Q29.118945312500003 107.52898632812499 28.678393554687503 107.73849316406249Q28.237841796875003 107.948 27.568203125 107.948ZM26.26025390625 107.066896484375H27.3958984375Q27.971552734375003 107.066896484375 28.2280517578125 106.84368359375Q28.48455078125 106.620470703125 28.48455078125 106.27586132812499Q28.48455078125 106.01348828124999 28.355322265625 105.80593945312499Q28.22609375 105.598390625 27.9891748046875 105.476994140625Q27.752255859375 105.35559765625 27.431142578125 105.35559765625H26.26025390625ZM26.26025390625 104.595890625H27.30974609375Q27.579951171875003 104.595890625 27.799248046875 104.49407421875Q28.018544921875 104.39225781249999 28.145815429687502 104.20624707031249Q28.2730859375 104.020236328125 28.2730859375 103.7656953125Q28.2730859375 103.42891796875 28.034208984375 103.2076630859375Q27.795332031250002 102.986408203125 27.3332421875 102.986408203125H26.26025390625Z"/><path fill-rule="evenodd" d="M35.921 101.659A4.279 4.668 0 1 0 42.405 101.659A0.846 0.584 0 0 0 40.712 101.659A2.983 3.566 0 1 1 37.614 101.659A0.846 0.584 0 0 0 35.921 101.659ZM36.045 102.372A3.761 4.176 0 0 0 36.867 108.013L37.319 108.013A3.501 3.89 0 0 1 36.362 102.372ZM42.282 102.372A3.761 4.176 0 0 1 41.46 108.013L41.008 108.013A3.501 3.89 0 0 0 41.964 102.372Z"/><path d="M50.02025390625 102.11313671875V107.948H48.9629296875V102.11313671875Z M57.280595703125 107.948V102.11313671875H58.337919921875V107.06298046875H60.9107421875V107.948Z M69.9137109375 107.948H68.43345703125V107.03165234375H69.85888671875Q70.465869140625 107.03165234375 70.8750927734375 106.8103974609375Q71.28431640625 106.58914257812499 71.48990722656251 106.14271679687499Q71.695498046875 105.696291015625 71.695498046875 105.02665234374999Q71.695498046875 104.357013671875 71.491865234375 103.91450390624999Q71.288232421875 103.471994140625 70.8848828125 103.2507392578125Q70.481533203125 103.029484375 69.886298828125 103.029484375H68.40212890625V102.11313671875H69.948955078125Q70.818310546875 102.11313671875 71.4429150390625 102.461662109375Q72.06751953125 102.8101875 72.404296875 103.464162109375Q72.74107421875 104.11813671875 72.74107421875 105.02665234374999Q72.74107421875 105.93516796875 72.404296875 106.5911005859375Q72.06751953125 107.247033203125 71.4350830078125 107.59751660156249Q70.802646484375 107.948 69.9137109375 107.948ZM68.98953125 102.11313671875V107.948H67.93220703125V102.11313671875Z M79.852607421875 107.948V102.11313671875H83.651142578125V102.99815625H80.909931640625V104.5645625H83.447509765625V105.43783398437499H80.909931640625V107.06298046875H83.666806640625V107.948Z M90.83708007812501 107.948V102.11313671875H93.02613281250001Q93.69968750000001 102.11313671875 94.15590332031252 102.34809765624999Q94.61211914062501 102.58305859375 94.847080078125 103.0040302734375Q95.08204101562501 103.42500195312499 95.08204101562501 103.98107617187499Q95.08204101562501 104.54106640625 94.84512207031251 104.95224804687498Q94.60820312500002 105.36342968749999 94.14611328125002 105.58664257812498Q93.68402343750002 105.80985546874999 93.01046875000002 105.80985546874999H91.45581054687501V104.93658398437499H92.865576171875Q93.26109375000001 104.93658398437499 93.5136767578125 104.82693554687499Q93.76625976562501 104.717287109375 93.88569824218752 104.5038642578125Q94.00513671875001 104.29044140625 94.00513671875001 103.98107617187499Q94.00513671875001 103.6717109375 93.88374023437501 103.45045605468749Q93.76234375000001 103.22920117187499 93.51171875000001 103.11367871093749Q93.26109375000001 102.99815625 92.86166015625001 102.99815625H91.89440429687501V107.948ZM94.11478515625001 107.948 92.70110351562501 105.3007734375H93.85241210937501L95.29742187500001 107.948Z M104.22990234375001 108.03806835937499Q103.54851562500002 108.03806835937499 103.04726562500002 107.82660351562498Q102.54601562500001 107.61513867187499 102.26406250000002 107.2098310546875Q101.98210937500002 106.8045234375 101.95861328125001 106.224953125H103.00027343750001Q103.02376953125001 106.53040234375 103.18824218750001 106.7320771484375Q103.35271484375002 106.933751953125 103.62096191406252 107.03556835937499Q103.88920898437502 107.13738476562499 104.21815429687501 107.13738476562499Q104.56276367187502 107.13738476562499 104.82513671875002 107.03165234374998Q105.08750976562501 106.92591992187499 105.23631835937502 106.73795117187498Q105.38512695312501 106.54998242187499 105.38512695312501 106.29935742187499Q105.38512695312501 106.072228515625 105.25198242187501 105.9253779296875Q105.11883789062502 105.77852734375 104.88387695312503 105.67671093749999Q104.64891601562502 105.57489453125 104.33171875000002 105.49657421875L103.66991210937502 105.32426953125Q102.94936523437502 105.140216796875 102.53426757812503 104.7623212890625Q102.11916992187501 104.38442578124999 102.11916992187501 103.75394726562499Q102.11916992187501 103.237033203125 102.39720703125002 102.8513056640625Q102.67524414062501 102.465578125 103.15887207031251 102.25019726562499Q103.64250000000001 102.03481640624999 104.25339843750001 102.03481640624999Q104.87604492187502 102.03481640624999 105.34596679687502 102.25019726562499Q105.81588867187502 102.465578125 106.08217773437502 102.845431640625Q106.34846679687502 103.22528515625 106.36021484375001 103.71870312499999H105.33813476562501Q105.29897460937502 103.342765625 105.00723144531253 103.1371748046875Q104.71548828125002 102.931583984375 104.24165039062501 102.931583984375Q103.91270507812501 102.931583984375 103.67578613281252 103.029484375Q103.43886718750002 103.127384765625 103.31355468750002 103.299689453125Q103.18824218750001 103.471994140625 103.18824218750001 103.691291015625Q103.18824218750001 103.934083984375 103.33509277343751 104.0887666015625Q103.48194335937501 104.24344921874999 103.71103027343752 104.33743359374999Q103.94011718750002 104.43141796875 104.17899414062502 104.49407421875L104.72332031250002 104.63113476562499Q105.05226562500002 104.70945507812499 105.35771484375002 104.84064160156248Q105.66316406250002 104.97182812499999 105.90791503906252 105.16958691406249Q106.15266601562502 105.367345703125 106.2956005859375 105.649298828125Q106.43853515625001 105.931251953125 106.43853515625001 106.31110546875Q106.43853515625001 106.82018749999999 106.17616210937501 107.2098310546875Q105.91378906250002 107.599474609375 105.42037109375002 107.81877148437499Q104.92695312500001 108.03806835937499 104.22990234375001 108.03806835937499Z"/><path d="M7.651 104.836h11.93v0.778h-11.93Z M111.913 104.836h12.06v0.778h-12.06Z"/></g></svg>